<svg width="593" height="545" viewBox="0 0 593 545" fill="none" xmlns="http://www.w3.org/2000/svg">
<path d="M591.56 210.521C591.56 210.521 596.141 128.561 479.416 83.0889C479.416 83.0889 456.694 20.9316 374.785 36.15C374.785 36.15 274.551 -57.9111 164.789 57.4192C164.789 57.4192 107.984 43.6676 88.3774 114.993C88.3774 114.993 -7.09167 145.43 0.42125 242.424C0.42125 242.424 0.0547607 359.588 124.659 350.054C124.659 350.054 182.197 433.847 290.86 389.108C290.86 389.108 320.912 379.391 310.467 359.955C303.504 347.12 291.959 340.703 281.331 345.287C281.331 345.287 202.904 396.993 140.785 310.449C140.785 310.449 54.6609 341.803 35.054 246.275C35.054 246.275 22.0438 171.649 114.031 144.696C114.031 144.696 116.963 81.8054 182.93 89.323C182.93 89.323 209.5 30.466 285.179 36.5168C285.179 36.5168 324.393 31.3828 370.753 73.9212C370.753 73.9212 422.244 46.2346 461.458 115.176C461.458 115.176 553.446 146.713 554.728 216.938C554.728 216.938 567.555 281.296 506.536 308.982C506.536 308.982 533.656 390.392 443.5 408.727L471.72 498.938L388.345 439.531C388.345 439.531 357.193 443.382 341.068 421.562C341.068 421.562 325.309 401.76 308.085 425.413C308.085 425.413 296.357 440.448 316.147 455.666C316.147 455.666 342.534 484.453 374.968 476.752L450.28 532.309C450.28 532.309 472.086 555.411 496.824 539.276C496.824 539.276 514.965 527.908 505.436 498.388L487.295 432.747C487.295 432.747 550.147 420.279 550.147 333.735C550.514 333.735 602.188 296.881 591.56 210.521Z" fill="white" fill-opacity="0.2"/>
</svg>
