<svg width="18" height="20" viewBox="0 0 18 20" fill="none" xmlns="http://www.w3.org/2000/svg">
<path d="M17.472 13.6245C17.472 13.7118 17.3846 13.7118 17.3846 13.7991C17.21 14.1485 16.8606 14.2358 16.5113 14.1485C16.1619 14.0611 15.8999 13.7991 15.8999 13.3624C15.8999 12.4017 15.8999 11.5284 15.8999 10.5677C15.8999 10.2183 15.8126 9.869 15.5506 9.51965C15.2012 9.08297 14.7646 8.9083 14.1532 8.9083C11.3584 8.9083 8.47634 8.9083 5.68158 8.9083C4.80822 8.9083 4.02219 8.9083 3.14883 8.9083C2.45014 8.9083 1.92612 9.17031 1.66411 9.78166C1.57678 10.0437 1.48944 10.3057 1.48944 10.5677C1.48944 12.6638 1.48944 14.6725 1.48944 16.7686C1.48944 17.5546 1.92612 18.1659 2.62481 18.3406C2.79948 18.4279 2.97416 18.4279 3.14883 18.4279C6.81695 18.4279 10.4851 18.4279 14.1532 18.4279C14.9392 18.4279 15.5506 17.9913 15.7252 17.2926C15.7252 17.2052 15.8126 17.0306 15.8126 16.8559C15.8126 16.4192 16.0746 16.1572 16.4239 16.0699C16.7733 15.9825 17.1226 16.2445 17.2973 16.5939C17.2973 16.5939 17.2973 16.6812 17.3846 16.6812C17.3846 16.8559 17.3846 17.0306 17.3846 17.2926C17.3846 17.2926 17.3846 17.2926 17.3846 17.3799C17.1226 18.952 15.8126 20 14.2405 20C10.5724 20 6.81695 20 3.14883 20C2.88682 20 2.71215 20 2.45014 19.9127C1.05276 19.6507 -0.0826128 18.3406 0.00472344 16.7686C0.00472344 14.6725 0.00472344 12.5764 0.00472344 10.4803C0.00472344 10.3057 0.00472344 10.131 0.00472344 9.95633C0.179396 8.73363 1.05276 7.77293 2.27547 7.42358C2.79948 7.24891 3.3235 7.33625 3.76018 7.33625C3.84752 7.33625 3.93485 7.33625 4.02219 7.33625C4.02219 6.37555 4.02219 5.41485 4.02219 4.45415C4.02219 4.19214 4.02219 3.8428 4.10953 3.58079C4.54621 1.74673 5.76892 0.524017 7.60298 0.0873363C7.77765 6.50706e-09 7.95232 0 8.12699 0C8.47634 0 8.82568 0 9.17503 0C9.3497 0 9.43704 0.0873363 9.61171 0.0873363C11.7951 0.524017 13.3672 2.44542 13.3672 4.62882C13.3672 5.50218 13.3672 6.28821 13.3672 7.16157C13.3672 7.24891 13.3672 7.33624 13.3672 7.42358C13.7165 7.42358 13.9785 7.42358 14.2405 7.42358C15.5506 7.42358 16.5113 8.03494 17.1226 9.25764C17.2973 9.51965 17.2973 9.869 17.3846 10.131C17.472 11.2664 17.472 12.4017 17.472 13.6245ZM5.68158 7.33625C7.77765 7.33625 9.87372 7.33625 11.8825 7.33625C11.8825 6.37555 11.8825 5.41485 11.8825 4.45415C11.8825 4.36681 11.8825 4.19214 11.7951 4.1048C11.4458 2.35808 9.69905 1.31004 8.03966 1.65939C6.72962 2.00873 5.76892 3.05677 5.68158 4.45415C5.59424 5.41485 5.68158 6.37555 5.68158 7.33625ZM3.67285 13.5371C3.67285 13.9738 4.02219 14.3231 4.45887 14.3231C4.89555 14.3231 5.2449 13.9738 5.2449 13.5371C5.2449 13.1004 4.89555 12.7511 4.45887 12.7511C4.02219 12.7511 3.67285 13.1004 3.67285 13.5371ZM8.12699 13.5371C8.12699 13.1004 7.77765 12.7511 7.34097 12.7511C6.90429 12.7511 6.55494 13.1004 6.55494 13.5371C6.55494 13.9738 6.90429 14.3231 7.34097 14.3231C7.77765 14.3231 8.12699 13.9738 8.12699 13.5371ZM11.0091 13.5371C11.0091 13.1004 10.6597 12.7511 10.2231 12.7511C9.78638 12.7511 9.43704 13.1004 9.43704 13.5371C9.43704 13.9738 9.78638 14.3231 10.2231 14.3231C10.6597 14.3231 11.0091 13.9738 11.0091 13.5371ZM13.1925 12.7511C12.7558 12.7511 12.4065 13.1004 12.4065 13.5371C12.4065 13.9738 12.7558 14.3231 13.1925 14.3231C13.6292 14.3231 13.9785 13.9738 13.9785 13.5371C13.9785 13.1004 13.6292 12.7511 13.1925 12.7511Z" fill="white"/>
</svg>
