<svg width="18" height="20" viewBox="0 0 18 20" fill="none" xmlns="http://www.w3.org/2000/svg">
<path d="M0 15.4936C0.0851295 15.0679 0.170259 14.6423 0.255389 14.2166C0.595907 12.6843 1.36207 11.3222 2.46876 10.2155C2.80927 9.87503 3.32005 9.87503 3.57544 10.1304C3.91596 10.4709 3.91596 10.8966 3.57544 11.2371C2.55389 12.3438 1.95798 13.6207 1.70259 14.9828C1.61746 15.3233 1.61746 15.6638 1.61746 16.0044C1.61746 16.3449 1.70259 16.6003 1.95798 16.7705C2.46876 17.1962 2.97953 17.5367 3.66057 17.7069C5.53342 18.388 7.4914 18.5582 9.44938 18.4731C10.7263 18.388 12.0884 18.2177 13.2802 17.7921C13.8761 17.6218 14.472 17.3664 14.9828 16.9408C15.4084 16.6003 15.5787 16.2597 15.5787 15.6638C15.4084 13.8761 14.7274 12.4289 13.5356 11.152C13.1951 10.8115 13.1951 10.3858 13.5356 10.0453C13.8761 9.7899 14.3018 9.70477 14.6423 10.0453C15.9192 11.2371 16.6854 12.7694 17.0259 14.472C17.111 14.8977 17.111 15.3233 17.1962 15.749C17.2813 16.7705 16.7705 17.5367 16.0044 18.1326C15.0679 18.8136 14.0464 19.1541 12.9397 19.4947C10.8966 20.0054 8.9386 20.0906 6.81036 19.9203C5.10777 19.8352 3.57544 19.5798 2.21337 18.8988C1.70259 18.6434 1.27694 18.3029 0.851295 18.0475C0.425648 17.7069 0.170259 17.1962 0 16.6003C0 16.2597 0 15.9192 0 15.4936ZM7.91705 0C7.74679 0 7.66166 0.0851295 7.4914 0.0851295C4.59699 0.595907 2.63902 3.40518 3.14979 6.29959C3.66057 9.27912 6.38472 11.152 9.19399 10.8115C11.6627 10.4709 13.7059 8.42782 13.8761 5.87394C14.1315 3.32005 12.514 1.02155 10.0453 0.255389C9.70477 0.170259 9.36425 0.0851295 9.02373 0C8.68321 0 8.34269 0 7.91705 0ZM8.42782 1.53233C10.5561 1.53233 12.3438 3.23492 12.3438 5.36316C12.3438 7.4914 10.6412 9.27912 8.51295 9.27912C6.38472 9.27912 4.68212 7.57653 4.59699 5.44829C4.59699 3.32005 6.38471 1.53233 8.42782 1.53233Z" fill="white"/>
</svg>
